<svg xmlns="http://www.w3.org/2000/svg" xmlns:xlink="http://www.w3.org/1999/xlink" width="389" height="531" viewBox="0 0 389 531">
  <defs>
    <clipPath id="clip-path">
      <rect id="Rectangle_740" data-name="Rectangle 740" width="35" height="78" fill="#c548af"/>
    </clipPath>
  </defs>
  <g id="Cake_Graphic_Background" data-name="Cake Graphic + Background" transform="translate(-1551 -8967.742)">
    <path id="Background_Bottom" data-name="Background Bottom" d="M0,0H389a0,0,0,0,1,0,0V278a16,16,0,0,1-16,16H0a0,0,0,0,1,0,0V0A0,0,0,0,1,0,0Z" transform="translate(1551 9204.742)" fill="#212146"/>
    <path id="Background_Top" data-name="Background Top" d="M0,0H373a16,16,0,0,1,16,16V237a0,0,0,0,1,0,0H0a0,0,0,0,1,0,0V0A0,0,0,0,1,0,0Z" transform="translate(1551 8967.742)" fill="#2b2b57"/>
    <g id="Birthday_Cake" data-name="Birthday Cake" transform="translate(1653.937 9085.492)">
      <ellipse id="Ellipse_288" data-name="Ellipse 288" cx="81.113" cy="46.909" rx="81.113" ry="46.909" transform="translate(85.693 144.682)" fill="rgba(20,20,43,0.62)"/>
      <path id="Path_4223" data-name="Path 4223" d="M91.5,0c47.4,0,86.8,9.158,91.5,36.176.262,1.5,0,15.009,0,16.824,0,29.271-40.966,53-91.5,53S0,82.271,0,53c0-1.932-.4-14.684,0-16.824C4.873,9.855,44.3,0,91.5,0Z" transform="translate(2.025 132.5)" fill="#fffdd0"/>
      <path id="Path_4226" data-name="Path 4226" d="M161.645-21.465s16.594,30.56,21.287,57.521c.261,1.493,0,14.978,0,16.789,0,23.514-23.51,43.094-60.443,50.021-.183-.248,14.382-4.853,24.314-18.318C161.127,68.2,161.707-1,161.645-21.465Z" transform="translate(2.093 132.5)" fill="rgba(237,229,47,0.5)"/>
      <path id="Path_4222" data-name="Path 4222" d="M93.434,0c46.956,0,86.743-1.357,93.43,24.521.582,2.248,0,25.844,0,28.479,0,7.714-2.9,15.042-8.337,21.9-4.393,5.55-14.189,2.027-21.971,6.554-7.436,4.328-12.914,16.678-23.057,19.437-11.935,3.246-19.39-4.489-33.838-4.489-9.346,0-24.6,8.817-33.358,7.324-11.481-1.957-18-13.305-27.492-17.64-7.658-3.5-18.652.279-24.213-4.631C5.425,73.357,0,63.538,0,53,0,49.663-.6,25.582.529,22.134,8.516-2.189,47.716,0,93.434,0Z" transform="translate(0.159 114.5)" fill="#4ed98c"/>
      <g id="Mask_Group_16" data-name="Mask Group 16" transform="translate(154.063 140)" clip-path="url(#clip-path)">
        <path id="Path_4229" data-name="Path 4229" d="M93.434,0c46.956,0,86.743-1.357,93.43,24.521.582,2.248,0,25.844,0,28.479,0,7.714-2.9,15.042-8.337,21.9-4.393,5.55-14.189,2.027-21.971,6.554-7.436,4.328-12.914,16.678-23.057,19.437-11.935,3.246-19.39-4.489-33.838-4.489-9.346,0-24.6,8.817-33.358,7.324-11.481-1.957-18-13.305-27.492-17.64-7.658-3.5-18.652.279-24.213-4.631C5.425,73.357,0,63.538,0,53,0,49.663-.6,25.582.529,22.134,8.516-2.189,47.716,0,93.434,0Z" transform="translate(-153.904 -25.5)" fill="#43bc79"/>
      </g>
      <ellipse id="Ellipse_281" data-name="Ellipse 281" cx="93.641" cy="53" rx="93.641" ry="53" transform="translate(0 86.5)" fill="#73f8ae"/>
      <path id="Path_4228" data-name="Path 4228" d="M93.641,0c51.717,0,93.641,23.729,93.641,53,0,14.782-10.692,28.15-28.147,37.88C21.052,46.979,41.925,0,93.641,0Z" transform="translate(0 86.5)" fill="#64e89f"/>
      <path id="Path_4225" data-name="Path 4225" d="M70.5,0c34.926,0,64.812,5.283,70.5,24.492.557,1.875,0,13.232,0,15.508,0,22.091-31.564,40-70.5,40S0,62.091,0,40c0-1.546-.357-13.735,0-15.508C3.943,4.827,34.289,0,70.5,0Z" transform="translate(23.025 86.5)" fill="#fffdd0"/>
      <path id="Path_4227" data-name="Path 4227" d="M141,24.492c.557,1.875,0,13.232,0,15.508,0,16.37-17.891,30.655-42.962,36.909-2.67.666,15.618-8.936,20.945-18.345C130.086,38.958,137.115,11.372,141,24.492Z" transform="translate(23.025 86.5)" fill="rgba(237,229,47,0.5)"/>
      <path id="Path_4224" data-name="Path 4224" d="M71.625,0c35.759,0,66.193,3.287,71.622,22.666.5,1.783,0,15.213,0,17.334,0,8.461-4.7,16.308-12.944,22.942-6.5,5.233-17.166,1.066-27.765,4.14C92.951,69.864,83.559,80,71.625,80c-12.759,0-21.218-9.537-31.911-12.918-10.616-3.356-23.307-.7-29.81-6.777C3.687,54.5,0,47.489,0,40c0-1.458-.326-15.644,0-17.334C3.8,2.876,34.679,0,71.625,0Z" transform="translate(21.912 70.5)" fill="#4ed98c"/>
      <ellipse id="Ellipse_283" data-name="Ellipse 283" cx="71.806" cy="40" rx="71.806" ry="40" transform="translate(21.769 52.5)" fill="#73f8ae"/>
      <path id="Polygon_12" data-name="Polygon 12" d="M7.621,1.62a1,1,0,0,1,1.758,0L10.8,4.239a1,1,0,0,0,.771.517l3.046.332a1,1,0,0,1,.522,1.77L13.105,8.511a1,1,0,0,0-.346.992l.552,2.5A1,1,0,0,1,11.9,13.119L8.93,11.7a1,1,0,0,0-.861,0L5.1,13.119A1,1,0,0,1,3.689,12l.552-2.5a1,1,0,0,0-.346-.992L1.861,6.859a1,1,0,0,1,.522-1.77l3.046-.332A1,1,0,0,0,6.2,4.239Z" transform="matrix(0.999, -0.052, 0.052, 0.999, 14.185, 179.096)" fill="#fff"/>
      <path id="Polygon_13" data-name="Polygon 13" d="M10.644,1.416a1,1,0,0,1,1.712,0l2.335,3.862a1,1,0,0,0,.759.478l4.936.482a1,1,0,0,1,.492,1.8l-3.252,2.37a1,1,0,0,0-.382,1.047l.885,3.594a1,1,0,0,1-1.364,1.159l-4.87-2.084a1,1,0,0,0-.787,0l-4.87,2.084a1,1,0,0,1-1.364-1.159l.885-3.594a1,1,0,0,0-.382-1.047L2.124,8.041a1,1,0,0,1,.492-1.8l4.936-.482a1,1,0,0,0,.759-.478Z" transform="translate(56.163 197.682) rotate(-16)" fill="#f7f7f7"/>
      <path id="Polygon_16" data-name="Polygon 16" d="M6.931,1.375a1,1,0,0,1,1.7,0L9.855,3.351a1,1,0,0,0,.755.469l2.284.218a1,1,0,0,1,.485,1.81l-1.264.9a1,1,0,0,0-.39,1.059L12.1,9.3a1,1,0,0,1-1.355,1.167L8.168,9.391a1,1,0,0,0-.771,0L4.816,10.47A1,1,0,0,1,3.461,9.3l.377-1.494a1,1,0,0,0-.39-1.059l-1.264-.9a1,1,0,0,1,.485-1.81l2.284-.218a1,1,0,0,0,.755-.469Z" transform="translate(33.268 115.109) rotate(32)" fill="#fff"/>
      <path id="Polygon_17" data-name="Polygon 17" d="M6.931,1.375a1,1,0,0,1,1.7,0L9.855,3.351a1,1,0,0,0,.755.469l2.284.218a1,1,0,0,1,.485,1.81l-1.264.9a1,1,0,0,0-.39,1.059L12.1,9.3a1,1,0,0,1-1.355,1.167L8.168,9.391a1,1,0,0,0-.771,0L4.816,10.47A1,1,0,0,1,3.461,9.3l.377-1.494a1,1,0,0,0-.39-1.059l-1.264-.9a1,1,0,0,1,.485-1.81l2.284-.218a1,1,0,0,0,.755-.469Z" transform="matrix(1, -0.017, 0.017, 1, 85.693, 135.516)" fill="#f7f7f7"/>
      <path id="Polygon_18" data-name="Polygon 18" d="M6.931,1.375a1,1,0,0,1,1.7,0L9.855,3.351a1,1,0,0,0,.755.469l2.284.218a1,1,0,0,1,.485,1.81l-1.264.9a1,1,0,0,0-.39,1.059L12.1,9.3a1,1,0,0,1-1.355,1.167L8.168,9.391a1,1,0,0,0-.771,0L4.816,10.47A1,1,0,0,1,3.461,9.3l.377-1.494a1,1,0,0,0-.39-1.059l-1.264-.9a1,1,0,0,1,.485-1.81l2.284-.218a1,1,0,0,0,.755-.469Z" transform="matrix(-0.819, 0.574, -0.574, -0.819, 157.77, 126.641)" fill="#fff"/>
      <path id="Polygon_14" data-name="Polygon 14" d="M7.6,1.9A1,1,0,0,1,9.4,1.9l1.411,2.973a1,1,0,0,0,.78.563l3.275.407a1,1,0,0,1,.557,1.725L13.033,9.794a1,1,0,0,0-.3.923l.619,3.2a1,1,0,0,1-1.46,1.068L8.978,13.4a1,1,0,0,0-.957,0L5.11,14.985a1,1,0,0,1-1.46-1.068l.619-3.2a1,1,0,0,0-.3-.923L1.573,7.572A1,1,0,0,1,2.13,5.846l3.275-.407a1,1,0,0,0,.78-.563Z" transform="matrix(0.978, 0.208, -0.208, 0.978, 121.945, 190.512)" fill="#fff"/>
      <path id="Polygon_15" data-name="Polygon 15" d="M6.084,2.09a1,1,0,0,1,1.832,0l.959,2.188a1,1,0,0,0,.782.59l2.348.317a1,1,0,0,1,.576,1.7L10.765,8.707a1,1,0,0,0-.275.881l.454,2.545a1,1,0,0,1-1.493,1.037L7.508,12.023a1,1,0,0,0-1.017,0L4.549,13.169a1,1,0,0,1-1.493-1.037l.454-2.545a1,1,0,0,0-.275-.881L1.419,6.88a1,1,0,0,1,.576-1.7l2.348-.317a1,1,0,0,0,.782-.59Z" transform="matrix(0.998, -0.07, 0.07, 0.998, 163.987, 171.4)" fill="#fff"/>
      <g id="Candel" transform="translate(33.063)">
        <g id="Group_2105" data-name="Group 2105" transform="translate(20 41)">
          <rect id="Rectangle_741" data-name="Rectangle 741" width="14" height="46" transform="translate(0 7)" fill="#3a865c"/>
          <ellipse id="Ellipse_285" data-name="Ellipse 285" cx="7" cy="6.5" rx="7" ry="6.5" fill="#444159"/>
          <ellipse id="Ellipse_286" data-name="Ellipse 286" cx="7" cy="6.5" rx="7" ry="6.5" transform="translate(0 46)" fill="#3a865c"/>
        </g>
        <rect id="Rectangle_742" data-name="Rectangle 742" width="2" height="10" transform="translate(26 38)" fill="#14142b"/>
        <path id="Path_4230" data-name="Path 4230" d="M7.222-11.383C12.192-11.383,18,3.358,18,7.5S13.971,15,9,15,0,11.642,0,7.5C0,5.607,1.552,3.809,3.127-.452,4.22-4.787,4.523-11.383,7.222-11.383Z" transform="translate(18 25)" fill="#f0a925"/>
        <path id="Path_4232" data-name="Path 4232" d="M4.838-11.383c3.33,0,7.22,9.875,7.22,12.65s-2.7,5.024-6.029,5.024S0,4.042,0,1.267C0,0,1.04-1.206,2.095-4.06,2.827-6.964,3.03-11.383,4.838-11.383Z" transform="translate(20.971 29.82)" fill="#fbc567"/>
        <circle id="Ellipse_287" data-name="Ellipse 287" cx="27" cy="27" r="27" fill="rgba(255,255,255,0.1)"/>
        <path id="Path_4241" data-name="Path 4241" d="M0,0S.123,6.982,7.028,6.982,14,0,14,0V4A6.767,6.767,0,0,1,7.028,9.672,6.852,6.852,0,0,1,0,4Z" transform="translate(20 54)" fill="#fff"/>
        <path id="Path_4242" data-name="Path 4242" d="M0,0S.123,6.982,7.028,6.982,14,0,14,0V4A6.767,6.767,0,0,1,7.028,9.672,6.852,6.852,0,0,1,0,4Z" transform="translate(20 63.672)" fill="#29c66f"/>
        <path id="Path_4243" data-name="Path 4243" d="M0,0S.123,6.982,7.028,6.982,14,0,14,0V4A6.767,6.767,0,0,1,7.028,9.672,6.852,6.852,0,0,1,0,4Z" transform="translate(20 73.344)" fill="#fff"/>
        <path id="Path_4244" data-name="Path 4244" d="M0,0S.123,6.982,7.028,6.982,14,0,14,0V4A6.767,6.767,0,0,1,7.028,9.672,6.852,6.852,0,0,1,0,4Z" transform="translate(20 83.016)" fill="#29c66f"/>
      </g>
      <g id="Candel-2" data-name="Candel" transform="translate(65.063 18)">
        <g id="Group_2105-2" data-name="Group 2105" transform="translate(20 41)">
          <rect id="Rectangle_741-2" data-name="Rectangle 741" width="14" height="46" transform="translate(0 7)" fill="#3a865c"/>
          <ellipse id="Ellipse_285-2" data-name="Ellipse 285" cx="7" cy="6.5" rx="7" ry="6.5" fill="#444159"/>
          <ellipse id="Ellipse_286-2" data-name="Ellipse 286" cx="7" cy="6.5" rx="7" ry="6.5" transform="translate(0 46)" fill="#3a865c"/>
        </g>
        <rect id="Rectangle_742-2" data-name="Rectangle 742" width="2" height="10" transform="translate(26 38)" fill="#14142b"/>
        <path id="Path_4230-2" data-name="Path 4230" d="M7.222-11.383C12.192-11.383,18,3.358,18,7.5S13.971,15,9,15,0,11.642,0,7.5C0,5.607,1.552,3.809,3.127-.452,4.22-4.787,4.523-11.383,7.222-11.383Z" transform="translate(18 25)" fill="#f0a925"/>
        <path id="Path_4232-2" data-name="Path 4232" d="M4.838-11.383c3.33,0,7.22,9.875,7.22,12.65s-2.7,5.024-6.029,5.024S0,4.042,0,1.267C0,0,1.04-1.206,2.095-4.06,2.827-6.964,3.03-11.383,4.838-11.383Z" transform="translate(20.971 29.82)" fill="#fbc567"/>
        <circle id="Ellipse_287-2" data-name="Ellipse 287" cx="27" cy="27" r="27" fill="rgba(255,255,255,0.1)"/>
        <path id="Path_4233" data-name="Path 4233" d="M0,0S.123,6.982,7.028,6.982,14,0,14,0V4A6.767,6.767,0,0,1,7.028,9.672,6.852,6.852,0,0,1,0,4Z" transform="translate(20 54)" fill="#29c66f"/>
        <path id="Path_4234" data-name="Path 4234" d="M0,0S.123,6.982,7.028,6.982,14,0,14,0V4A6.767,6.767,0,0,1,7.028,9.672,6.852,6.852,0,0,1,0,4Z" transform="translate(20 63.672)" fill="#fff"/>
        <path id="Path_4235" data-name="Path 4235" d="M0,0S.123,6.982,7.028,6.982,14,0,14,0V4A6.767,6.767,0,0,1,7.028,9.672,6.852,6.852,0,0,1,0,4Z" transform="translate(20 73.344)" fill="#29c66f"/>
        <path id="Path_4236" data-name="Path 4236" d="M0,0S.123,6.982,7.028,6.982,14,0,14,0V4A6.767,6.767,0,0,1,7.028,9.672,6.852,6.852,0,0,1,0,4Z" transform="translate(20 83.016)" fill="#fff"/>
      </g>
      <g id="Candel-3" data-name="Candel" transform="translate(95.063)">
        <g id="Group_2105-3" data-name="Group 2105" transform="translate(20 41)">
          <rect id="Rectangle_741-3" data-name="Rectangle 741" width="14" height="46" transform="translate(0 7)" fill="#3a865c"/>
          <ellipse id="Ellipse_285-3" data-name="Ellipse 285" cx="7" cy="6.5" rx="7" ry="6.5" fill="#444159"/>
          <ellipse id="Ellipse_286-3" data-name="Ellipse 286" cx="7" cy="6.5" rx="7" ry="6.5" transform="translate(0 46)" fill="#3a865c"/>
        </g>
        <rect id="Rectangle_742-3" data-name="Rectangle 742" width="2" height="10" transform="translate(26 38)" fill="#14142b"/>
        <path id="Path_4230-3" data-name="Path 4230" d="M7.222-11.383C12.192-11.383,18,3.358,18,7.5S13.971,15,9,15,0,11.642,0,7.5C0,5.607,1.552,3.809,3.127-.452,4.22-4.787,4.523-11.383,7.222-11.383Z" transform="translate(18 25)" fill="#f0a925"/>
        <path id="Path_4232-3" data-name="Path 4232" d="M4.838-11.383c3.33,0,7.22,9.875,7.22,12.65s-2.7,5.024-6.029,5.024S0,4.042,0,1.267C0,0,1.04-1.206,2.095-4.06,2.827-6.964,3.03-11.383,4.838-11.383Z" transform="translate(20.971 29.82)" fill="#fbc567"/>
        <circle id="Ellipse_287-3" data-name="Ellipse 287" cx="27" cy="27" r="27" fill="rgba(255,255,255,0.1)"/>
        <path id="Path_4237" data-name="Path 4237" d="M0,0S.123,6.982,7.028,6.982,14,0,14,0V4A6.767,6.767,0,0,1,7.028,9.672,6.852,6.852,0,0,1,0,4Z" transform="translate(20 54)" fill="#fff"/>
        <path id="Path_4238" data-name="Path 4238" d="M0,0S.123,6.982,7.028,6.982,14,0,14,0V4A6.767,6.767,0,0,1,7.028,9.672,6.852,6.852,0,0,1,0,4Z" transform="translate(20 63.672)" fill="#29c66f"/>
        <path id="Path_4239" data-name="Path 4239" d="M0,0S.123,6.982,7.028,6.982,14,0,14,0V4A6.767,6.767,0,0,1,7.028,9.672,6.852,6.852,0,0,1,0,4Z" transform="translate(20 73.344)" fill="#fff"/>
        <path id="Path_4240" data-name="Path 4240" d="M0,0S.123,6.982,7.028,6.982,14,0,14,0V4A6.767,6.767,0,0,1,7.028,9.672,6.852,6.852,0,0,1,0,4Z" transform="translate(20 83.016)" fill="#29c66f"/>
      </g>
    </g>
  </g>
</svg>
