<svg id="Layer_2" data-name="Layer 2" xmlns="http://www.w3.org/2000/svg" width="32" height="32" viewBox="0 0 32 32">
  <g id="calendar">
    <rect id="Rectangle_46" data-name="Rectangle 46" width="32" height="32" fill="#707070" opacity="0"/>
    <path id="Path_69" data-name="Path 69" d="M23,4.667H21.667V3.333a1.333,1.333,0,0,0-2.667,0V4.667H11V3.333a1.333,1.333,0,1,0-2.667,0V4.667H7a4,4,0,0,0-4,4v16a4,4,0,0,0,4,4H23a4,4,0,0,0,4-4v-16a4,4,0,0,0-4-4ZM7,7.333H8.333V8.667a1.333,1.333,0,0,0,2.667,0V7.333h8V8.667a1.333,1.333,0,0,0,2.667,0V7.333H23a1.333,1.333,0,0,1,1.333,1.333V14H5.667V8.667A1.333,1.333,0,0,1,7,7.333ZM23,26H7a1.333,1.333,0,0,1-1.333-1.333v-8H24.333v8A1.333,1.333,0,0,1,23,26Z" transform="translate(1 0.667)" fill="#707070"/>
    <circle id="Ellipse_5" data-name="Ellipse 5" cx="1.5" cy="1.5" r="1.5" transform="translate(9 20)" fill="#707070"/>
    <path id="Path_70" data-name="Path 70" d="M17.667,15H12.333a1.333,1.333,0,0,0,0,2.667h5.333a1.333,1.333,0,0,0,0-2.667Z" transform="translate(3.667 5)" fill="#707070"/>
  </g>
</svg>
