<svg xmlns="http://www.w3.org/2000/svg" width="24" height="24" viewBox="0 0 24 24">
  <g id="Group_2114" data-name="Group 2114" transform="translate(-9158 22303.5)">
    <g id="Path_4065" data-name="Path 4065" transform="translate(9155 -22306.5)" fill="none" stroke-linecap="round" stroke-linejoin="round">
      <path d="M27,15A12,12,0,1,1,15,3,12,12,0,0,1,27,15Z" stroke="none"/>
      <path d="M 15 25 C 20.5140209197998 25 25 20.5140209197998 25 15 C 25 9.485980033874512 20.5140209197998 5 15 5 C 9.485980033874512 5 5 9.485980033874512 5 15 C 5 20.5140209197998 9.485980033874512 25 15 25 M 15 27 C 8.372579574584961 27 3 21.62742042541504 3 15 C 3 8.372579574584961 8.372579574584961 3 15 3 C 21.62742042541504 3 27 8.372579574584961 27 15 C 27 21.62742042541504 21.62742042541504 27 15 27 Z" stroke="none" fill="#fff"/>
    </g>
    <path id="Path_4066" data-name="Path 4066" d="M18,9v7.834l5.222,2.611" transform="translate(9152 -22307)" fill="none" stroke="#fff" stroke-linecap="round" stroke-linejoin="round" stroke-width="2"/>
  </g>
</svg>
