<svg xmlns="http://www.w3.org/2000/svg" xmlns:xlink="http://www.w3.org/1999/xlink" width="74" height="74" viewBox="0 0 74 74"><defs><filter id="a" x="0" y="0" width="74" height="74" filterUnits="userSpaceOnUse"><feOffset input="SourceAlpha"/><feGaussianBlur stdDeviation="4" result="b"/><feFlood flood-opacity="0.161"/><feComposite operator="in" in2="b"/><feComposite in="SourceGraphic"/></filter></defs><g transform="translate(12 12)"><g transform="matrix(1, 0, 0, 1, -12, -12)" filter="url(#a)"><path d="M50,43.75A6.268,6.268,0,0,1,43.75,50H6.25A6.268,6.268,0,0,1,0,43.75V6.25A6.268,6.268,0,0,1,6.25,0h37.5A6.268,6.268,0,0,1,50,6.25Z" transform="translate(12 12)" fill="#3c579e"/></g><path d="M57.745,61.113V41.521H51.1V34.535h6.649V28.086c0-6.5,3.651-10.336,9.166-10.336a39.775,39.775,0,0,1,5.461.39v7.305l-4.44,0c-3,0-3.561,1.565-3.561,3.765v5.327h7.686l-1.086,6.987h-6.6V61.113Z" transform="translate(-30.453 -11.113)" fill="#fff"/></g></svg>