<svg height="74" viewBox="0 0 74 74" width="74" xmlns="http://www.w3.org/2000/svg" xmlns:xlink="http://www.w3.org/1999/xlink"><filter id="a" filterUnits="userSpaceOnUse" height="74" width="74" x="0" y="0"><feOffset/><feGaussianBlur result="b" stdDeviation="4"/><feFlood flood-opacity=".161"/><feComposite in2="b" operator="in"/><feComposite in="SourceGraphic"/></filter><g filter="url(#a)"><rect fill="#fff" height="50" rx="7" transform="translate(12 12)" width="50"/></g><path d="m28.581 14.918a16.333 16.333 0 0 0 -9.2 8.058 16.078 16.078 0 0 0 -1.414 4.086 16.251 16.251 0 0 0 11.716 18.9 17.379 17.379 0 0 0 8.311.087 14.331 14.331 0 0 0 10.764-10.2 19.07 19.07 0 0 0 .41-8.625h-15.279v6.338h8.852a7.648 7.648 0 0 1 -3.248 5.02 9.3 9.3 0 0 1 -3.579 1.418 10.712 10.712 0 0 1 -3.876-.009 9.614 9.614 0 0 1 -3.614-1.563 10.041 10.041 0 0 1 -3.724-4.984 9.854 9.854 0 0 1 0-6.321 10.142 10.142 0 0 1 2.357-3.833 9.549 9.549 0 0 1 9.621-2.506 8.743 8.743 0 0 1 3.5 2.06l2.986-2.986c.524-.533 1.074-1.048 1.58-1.6a15.835 15.835 0 0 0 -5.229-3.239 16.39 16.39 0 0 0 -10.934-.101z" fill="#fff" transform="translate(3.44 7.242)"/><path d="m46.7 14.907a16.444 16.444 0 0 1 10.939.1 15.78 15.78 0 0 1 5.229 3.239c-.506.55-1.056 1.065-1.58 1.6l-2.988 2.98a8.844 8.844 0 0 0 -3.5-2.06 9.587 9.587 0 0 0 -4.767-.192 9.7 9.7 0 0 0 -4.854 2.7 10.076 10.076 0 0 0 -2.354 3.826c-1.772-1.379-3.544-2.75-5.325-4.129a16.316 16.316 0 0 1 9.2-8.064z" fill="#ea4335" transform="translate(-14.681 7.253)"/><path d="m18.07 120.486a16.2 16.2 0 0 1 1.414-4.086c1.772 1.379 3.544 2.75 5.325 4.129a9.8 9.8 0 0 0 0 6.321q-2.658 2.069-5.317 4.129a16.158 16.158 0 0 1 -1.422-10.493z" fill="#fbbc05" transform="translate(3.344 -86.19)"/><path d="m203.609 165.1h15.278a19.206 19.206 0 0 1 -.41 8.625 14.754 14.754 0 0 1 -4.112 6.74l-5.16-4.007a7.649 7.649 0 0 0 3.248-5.02h-8.853q.013-3.169.009-6.338z" fill="#4285f4" transform="translate(-166.28 -130.639)"/><path d="m37.5 240.329q2.658-2.056 5.317-4.129a10.092 10.092 0 0 0 3.719 4.985 9.674 9.674 0 0 0 3.614 1.563 10.52 10.52 0 0 0 3.876.009 9.3 9.3 0 0 0 3.579-1.414l5.16 4.007a14.652 14.652 0 0 1 -6.652 3.457 17.379 17.379 0 0 1 -8.311-.087 16.046 16.046 0 0 1 -5.9-2.977 16.349 16.349 0 0 1 -4.402-5.414z" fill="#34a853" transform="translate(-14.681 -195.531)"/></svg>