<svg xmlns="http://www.w3.org/2000/svg" width="166" height="174.619" viewBox="0 0 166 174.619">
  <g id="Group_2111" data-name="Group 2111" transform="translate(-9506.869 19318.049)">
    <path id="Polygon_1" data-name="Polygon 1" d="M78.679,2.07a10,10,0,0,1,8.641,0L145.213,29.8a10,10,0,0,1,5.426,6.782l14.279,62.237a10,10,0,0,1-1.944,8.491l-40.033,49.94a10,10,0,0,1-7.8,3.745H50.862a10,10,0,0,1-7.8-3.745L3.026,107.315a10,10,0,0,1-1.944-8.491L15.361,36.587A10,10,0,0,1,20.787,29.8Z" transform="translate(9506.869 -19304.43)" fill="#29c66f"/>
    <path id="Polygon_2" data-name="Polygon 2" d="M76.638,2.115a10,10,0,0,1,8.725,0L141.63,29.394a10,10,0,0,1,5.39,6.787l13.921,61.4a10,10,0,0,1-1.914,8.42l-38.977,49.2A10,10,0,0,1,112.213,159H49.787a10,10,0,0,1-7.839-3.791l-38.977-49.2a10,10,0,0,1-1.914-8.42l13.921-61.4a10,10,0,0,1,5.39-6.787Z" transform="translate(9508.869 -19303.43)" fill="#fff"/>
    <path id="Polygon_3" data-name="Polygon 3" d="M74.685,2.064a10,10,0,0,1,8.63,0L138,28.222A10,10,0,0,1,143.433,35l13.482,58.669a10,10,0,0,1-1.948,8.5l-37.806,47.088a10,10,0,0,1-7.8,3.739H48.637a10,10,0,0,1-7.8-3.739L3.033,102.173a10,10,0,0,1-1.948-8.5L14.567,35A10,10,0,0,1,20,28.222Z" transform="translate(9510.869 -19300.43)" fill="#29c66f"/>
    <path id="Polygon_10" data-name="Polygon 10" d="M54.194,2.054a10,10,0,0,1,8.612,0L101.058,20.3a10,10,0,0,1,5.439,6.78l9.413,40.855a10,10,0,0,1-1.955,8.516L87.537,109.271A10,10,0,0,1,79.747,113H37.253a10,10,0,0,1-7.79-3.729L3.045,76.454A10,10,0,0,1,1.09,67.938L10.5,27.084a10,10,0,0,1,5.439-6.78Z" transform="translate(9531.369 -19280.43)" fill="#fff"/>
    <path id="Polygon_11" data-name="Polygon 11" d="M52.135,2.118a10,10,0,0,1,8.731,0L97.484,19.886a10,10,0,0,1,5.387,6.788l9.072,40.046a10,10,0,0,1-1.912,8.415L84.648,107.206A10,10,0,0,1,76.806,111H36.194a10,10,0,0,1-7.841-3.794L2.969,75.135A10,10,0,0,1,1.057,66.72l9.072-40.046a10,10,0,0,1,5.387-6.788Z" transform="translate(9533.369 -19279.43)" fill="#0c0833"/>
    <text id="L" transform="translate(9590 -19203.5)" fill="#29c66f" font-size="64" font-family="Montserrat-Medium, Montserrat" font-weight="500" letter-spacing="-0.002em"><tspan x="-19.008" y="0">L</tspan></text>
    <text id="_3" data-name="3" transform="translate(9605 -19223.523)" fill="#29c66f" font-size="36" font-family="Montserrat-Medium, Montserrat" font-weight="500" letter-spacing="-0.002em"><tspan x="-10.296" y="0">3</tspan></text>
    <path id="Path_4193" data-name="Path 4193" d="M125.109,79.251a3.526,3.526,0,0,0-3.528,0L91.316,96.723V102.3h-.9a1.843,1.843,0,0,0-1.842,1.841h0a1.866,1.866,0,0,0,1.843,1.842h65.848a1.842,1.842,0,1,0,0-3.685h-.9V96.723Z" transform="translate(9465.844 -19366.311)" fill="#0c0833"/>
    <rect id="Rectangle_734" data-name="Rectangle 734" width="64.058" height="7.89" transform="translate(9557.159 -19278.078)" fill="#fede3a"/>
    <rect id="Rectangle_735" data-name="Rectangle 735" width="46.58" height="7.89" transform="translate(9565.898 -19278.078)" fill="#fff335"/>
    <path id="Path_4194" data-name="Path 4194" d="M156.269,89H90.42a1.842,1.842,0,0,1-1.842-1.842h0A1.842,1.842,0,0,1,90.42,85.32h65.849a1.842,1.842,0,0,1,1.842,1.842h0A1.842,1.842,0,0,1,156.269,89Z" transform="translate(9465.843 -19367.082)" fill="#fede3a"/>
    <path id="Path_4195" data-name="Path 4195" d="M147.991,89H101.259a1.842,1.842,0,0,1-1.842-1.842h0a1.842,1.842,0,0,1,1.842-1.842h46.731a1.842,1.842,0,0,1,1.842,1.842h0A1.843,1.843,0,0,1,147.991,89Z" transform="translate(9464.563 -19367.082)" fill="#fff335"/>
    <path id="Path_4196" data-name="Path 4196" d="M156.269,87.286H90.421a1.815,1.815,0,0,1-1.56-.922,1.791,1.791,0,0,0-.282.922h0a1.843,1.843,0,0,0,1.842,1.842h65.848a1.843,1.843,0,0,0,1.842-1.842h0a1.793,1.793,0,0,0-.282-.922A1.815,1.815,0,0,1,156.269,87.286Z" transform="translate(9465.843 -19367.207)" fill="#fede3a"/>
    <path id="Path_4197" data-name="Path 4197" d="M156.269,102.13H90.42a1.842,1.842,0,0,1-1.842-1.842h0a1.842,1.842,0,0,1,1.842-1.842h65.849a1.842,1.842,0,0,1,1.842,1.842h0A1.843,1.843,0,0,1,156.269,102.13Z" transform="translate(9465.843 -19368.633)" fill="#f7cb15"/>
    <path id="Path_4198" data-name="Path 4198" d="M148.264,102.13H100.986a1.57,1.57,0,0,1-1.569-1.569v-.548a1.569,1.569,0,0,1,1.569-1.569h47.278a1.569,1.569,0,0,1,1.569,1.569v.548A1.57,1.57,0,0,1,148.264,102.13Z" transform="translate(9464.563 -19368.633)" fill="#fede3a"/>
    <path id="Path_4199" data-name="Path 4199" d="M156.269,100.41H90.421a1.815,1.815,0,0,1-1.56-.922,1.793,1.793,0,0,0-.282.922,1.843,1.843,0,0,0,1.842,1.842h65.848a1.842,1.842,0,0,0,1.842-1.842,1.793,1.793,0,0,0-.282-.922A1.815,1.815,0,0,1,156.269,100.41Z" transform="translate(9465.843 -19368.756)" fill="#f7cb15"/>
    <path id="Path_4200" data-name="Path 4200" d="M83.343,58.707l7.4,23.149H123.72L86.5,56.357A2.08,2.08,0,0,0,83.343,58.707Z" transform="translate(9466.474 -19363.619)" fill="#fede3a"/>
    <path id="Path_4201" data-name="Path 4201" d="M89.545,58.443,86.5,56.357a2.081,2.081,0,0,0-3.158,2.35l7.4,23.149h6.242l-7.4-23.149A2.127,2.127,0,0,1,89.545,58.443Z" transform="translate(9466.474 -19363.619)" fill="#f7cb15"/>
    <path id="Path_4202" data-name="Path 4202" d="M83.5,59.194a2.062,2.062,0,0,1,3-.756l34.182,23.418h3.037L86.5,56.357a2.081,2.081,0,0,0-3.158,2.35Z" transform="translate(9466.474 -19363.619)" fill="#fff335"/>
    <path id="Path_4203" data-name="Path 4203" d="M167.237,58.707l-7.4,23.149H126.86l37.219-25.5A2.081,2.081,0,0,1,167.237,58.707Z" transform="translate(9461.323 -19363.619)" fill="#fede3a"/>
    <path id="Path_4204" data-name="Path 4204" d="M167.659,56.357l-3.044,2.086a2.018,2.018,0,0,1-.041.265l-7.4,23.149h6.242l7.4-23.149A2.081,2.081,0,0,0,167.659,56.357Z" transform="translate(9457.744 -19363.619)" fill="#f7cb15"/>
    <path id="Path_4205" data-name="Path 4205" d="M164.08,58.438a2.062,2.062,0,0,1,3,.756l.155-.486a2.08,2.08,0,0,0-3.157-2.35l-37.22,25.5H129.9Z" transform="translate(9461.323 -19363.619)" fill="#fff335"/>
    <path id="Path_4206" data-name="Path 4206" d="M123.262,45.226l-20.08,35.235h43.776L126.878,45.226A2.081,2.081,0,0,0,123.262,45.226Z" transform="translate(9464.119 -19362.225)" fill="#f7cb15"/>
    <path id="Path_4207" data-name="Path 4207" d="M123.262,49.388a2.081,2.081,0,0,1,3.616,0l17.708,31.075h2.371l-20.08-35.236a2.081,2.081,0,0,0-3.616,0l-20.08,35.235h2.371Z" transform="translate(9464.119 -19362.225)" fill="#fff335"/>
    <rect id="Rectangle_736" data-name="Rectangle 736" width="10.703" height="10.703" transform="translate(9581.619 -19294.031) rotate(-45)" fill="#fede3a"/>
    <path id="Path_4208" data-name="Path 4208" d="M128,62.828V70.4h7.568Z" transform="translate(9461.188 -19364.428)" fill="#fff"/>
    <path id="Path_4209" data-name="Path 4209" d="M135.568,71.41H128v7.569Z" transform="translate(9461.188 -19365.441)" fill="#fff335"/>
    <path id="Path_4210" data-name="Path 4210" d="M126.987,62.828V70.4h-7.569Z" transform="translate(9462.201 -19364.428)" fill="#fede3a"/>
    <path id="Path_4211" data-name="Path 4211" d="M119.418,71.41h7.569v7.569Z" transform="translate(9462.201 -19365.441)" fill="#e7ad27"/>
    <path id="Path_4212" data-name="Path 4212" d="M90.913,82.027v.592l.74,2.312h32.972l-4.239-2.9Z" transform="translate(9465.567 -19366.695)" fill="#f7cb15"/>
    <path id="Path_4213" data-name="Path 4213" d="M131.1,82.027l-4.239,2.9h32.972l.93-2.9Z" transform="translate(9461.323 -19366.695)" fill="#f7cb15"/>
    <path id="Path_4214" data-name="Path 4214" d="M104.836,82.027l-1.654,2.9h43.775l-1.654-2.9Z" transform="translate(9464.119 -19366.695)" fill="#e7ad27"/>
    <path id="Path_4215" data-name="Path 4215" d="M103.253,93.714a1.918,1.918,0,1,1-1.918-1.918A1.918,1.918,0,0,1,103.253,93.714Z" transform="translate(9464.563 -19367.848)" fill="#f7cb15"/>
    <path id="Path_4216" data-name="Path 4216" d="M116.457,93.714a1.918,1.918,0,1,1-1.918-1.918A1.918,1.918,0,0,1,116.457,93.714Z" transform="translate(9463.004 -19367.848)" fill="#f7cb15"/>
    <path id="Path_4217" data-name="Path 4217" d="M129.661,93.714a1.918,1.918,0,1,1-1.918-1.918A1.918,1.918,0,0,1,129.661,93.714Z" transform="translate(9461.445 -19367.848)" fill="#f7cb15"/>
    <path id="Path_4218" data-name="Path 4218" d="M142.865,93.714a1.918,1.918,0,1,1-1.918-1.918A1.918,1.918,0,0,1,142.865,93.714Z" transform="translate(9459.887 -19367.848)" fill="#f7cb15"/>
    <path id="Path_4219" data-name="Path 4219" d="M156.069,93.714a1.918,1.918,0,1,1-1.918-1.918A1.918,1.918,0,0,1,156.069,93.714Z" transform="translate(9458.327 -19367.848)" fill="#f7cb15"/>
  </g>
</svg>
