<svg id="tickets" xmlns="http://www.w3.org/2000/svg" width="28" height="28" viewBox="0 0 28 28">
  <g id="Group_2067" data-name="Group 2067">
    <g id="Group_2066" data-name="Group 2066">
      <path id="Path_4128" data-name="Path 4128" d="M24.537,7.012l-.58.58a2.51,2.51,0,0,1-3.549-3.549l.58-.58L17.525,0,0,17.525l3.463,3.463.58-.58a2.51,2.51,0,0,1,3.549,3.549l-.58.58L10.475,28,28,10.475ZM9.276,24.48A4.152,4.152,0,0,0,3.52,18.724l-1.2-1.2,15.2-15.2,1.2,1.2A4.152,4.152,0,0,0,24.48,9.276l1.2,1.2-15.2,15.2Z" fill="#fff"/>
    </g>
  </g>
  <g id="Group_2069" data-name="Group 2069" transform="translate(15.189 10.486)">
    <g id="Group_2068" data-name="Group 2068" transform="translate(0 0)">
      <rect id="Rectangle_720" data-name="Rectangle 720" width="1.641" height="1.647" transform="translate(0 1.16) rotate(-45)" fill="#fff"/>
    </g>
  </g>
  <g id="Group_2071" data-name="Group 2071" transform="translate(12.86 8.156)">
    <g id="Group_2070" data-name="Group 2070" transform="translate(0 0)">
      <rect id="Rectangle_721" data-name="Rectangle 721" width="1.641" height="1.647" transform="translate(0 1.16) rotate(-45)" fill="#fff"/>
    </g>
  </g>
  <g id="Group_2073" data-name="Group 2073" transform="translate(17.519 12.816)">
    <g id="Group_2072" data-name="Group 2072" transform="translate(0 0)">
      <rect id="Rectangle_722" data-name="Rectangle 722" width="1.641" height="1.647" transform="translate(0 1.16) rotate(-45)" fill="#fff"/>
    </g>
  </g>
</svg>
